{
  "accessors": [
    {
      "bufferView": 0,
      "componentType": 5123,
      "count": 6396,
      "max": [
        6395.0
      ],
      "min": [
        0.0
      ],
      "name": "buffer-0-accessor-indices-buffer-0-mesh-0",
      "normalized": true,
      "type": "SCALAR"
    },
    {
      "bufferView": 1,
      "componentType": 5126,
      "count": 1376,
      "max": [
        10292.872093023256,
        12229.558139534884,
        4500.610465116279
      ],
      "min": [
        -20068.127906976744,
        -18131.441860465115,
        -4929.389534883721
      ],
      "name": "buffer-0-accessor-position-buffer-0-mesh-0",
      "normalized": true,
      "type": "VEC3"
    },
    {
      "bufferView": 1,
      "byteOffset": 16512,
      "componentType": 5126,
      "count": 1376,
      "name": "buffer-0-accessor-normal-buffer-0-mesh-0",
      "normalized": true,
      "type": "VEC3"
    },
    {
      "bufferView": 1,
      "byteOffset": 33024,
      "componentType": 5126,
      "count": 1376,
      "name": "buffer-0-accessor-color-buffer-0-mesh-0",
      "normalized": true,
      "type": "VEC3"
    }
  ],
  "asset": {
    "generator": "Open3D",
    "version": "2.0"
  },
  "bufferViews": [
    {
      "buffer": 0,
      "byteLength": 12792,
      "name": "buffer-0-bufferview-ushort",
      "target": 34963
    },
    {
      "buffer": 0,
      "byteLength": 49536,
      "byteOffset": 12792,
      "byteStride": 12,
      "name": "buffer-0-bufferview-vec3",
      "target": 34962
    }
  ],
  "buffers": [
    {
      "byteLength": 62328,
      "uri": "data:application/octet-stream;base64,"
    }
  ],
  "meshes": [
    {
      "primitives": [
        {
          "attributes": {
            "COLOR_0": 3,
            "NORMAL": 2,
            "POSITION": 1
          },
          "indices": 0,
          "mode": 4
        }
      ]
    }
  ],
  "nodes": [
    {
      "mesh": 0
    }
  ],
  "scene": 0,
  "scenes": [
    {
      "nodes": [
        0
      ]
    }
  ]
}
